<svg xmlns="http://www.w3.org/2000/svg" viewBox="0 0 1200 560" font-family="Segoe UI, Helvetica, Arial, sans-serif">
  <rect width="1200" height="560" fill="#13111f"/>
  <rect x="0" y="0" width="1200" height="56" fill="#1b1830"/>
  <rect x="328" y="16" width="110" height="26" rx="13" fill="#3a86ff"/><text x="383" y="33" text-anchor="middle" font-size="12" fill="#fff">💬 Review Mode</text>
  <rect x="980" y="16" width="190" height="26" rx="13" fill="#1f6b4a"/><text x="1075" y="33" text-anchor="middle" font-size="12" fill="#bff0d6">ClaudePresentationColab</text>

  <rect x="140" y="100" width="920" height="380" rx="16" fill="#211d3a"/>
  <text x="1030" y="156" text-anchor="end" font-size="13" fill="#9a93bf" direction="rtl">מצגת צוות · 2026</text>
  <rect x="180" y="180" width="840" height="60" rx="8" fill="none" stroke="#7c5cff" stroke-width="2"/>
  <text x="1010" y="220" text-anchor="end" font-size="28" font-weight="700" fill="#f1eefc" direction="rtl">ברוכים הבאים למצגת השיתופית</text>
  <circle cx="470" cy="196" r="14" fill="#ff4d6d"/><text x="470" y="201" text-anchor="middle" font-size="12" font-weight="700" fill="#fff">1</text>

  <!-- comment dialog -->
  <rect x="360" y="226" width="320" height="150" rx="12" fill="#1d1933" stroke="#7c5cff" stroke-width="1.5"/>
  <text x="660" y="252" text-anchor="end" font-size="13" font-weight="700" fill="#e6e3f5" direction="rtl">הערה על: כותרת ראשית</text>
  <rect x="380" y="266" width="280" height="58" rx="8" fill="#0f0d1c" stroke="#3a3470"/>
  <text x="640" y="298" text-anchor="end" font-size="12" fill="#7d779e" direction="rtl">כתבו את ההערה שלכם כאן…</text>
  <rect x="380" y="334" width="74" height="30" rx="8" fill="#2a2547"/><text x="417" y="354" text-anchor="middle" font-size="12" fill="#cdc8e8" direction="rtl">ביטול</text>
  <rect x="560" y="334" width="100" height="30" rx="8" fill="#7c5cff"/><text x="610" y="354" text-anchor="middle" font-size="12" fill="#fff" direction="rtl">הוסף הערה</text>
</svg>
